<?xml version="1.0" standalone="no"?><!-- Generator: Gravit.io --><svg xmlns="http://www.w3.org/2000/svg" xmlns:xlink="http://www.w3.org/1999/xlink" style="isolation:isolate" viewBox="521.5 4270.025 66 66" width="66" height="66"><g><linearGradient id="_lgradient_1" x1="0.5000051041172603" y1="-0.006220548874236009" x2="0.5000051041172601" y2="0.9832795405581123" gradientTransform="matrix(46.13,0,0,50.464,530.164,4283.032)" gradientUnits="userSpaceOnUse"><stop offset="0%" stop-opacity="1" style="stop-color:rgb(109,199,255)"/><stop offset="100%" stop-opacity="1" style="stop-color:rgb(230,171,255)"/></linearGradient><path d=" M 545.626 4333.496 C 545.622 4333.029 545.618 4331.006 545.614 4329.112 L 545.61 4327.145 C 537.07 4328.306 535.002 4322.347 534.979 4322.283 C 533.794 4319.278 532.173 4318.419 532.103 4318.383 L 531.946 4318.292 C 531.358 4317.891 529.799 4316.823 530.242 4315.419 C 530.642 4314.154 532.192 4314.023 532.896 4314.046 C 536.798 4314.319 538.773 4317.826 538.854 4317.974 C 540.846 4321.387 543.885 4321.035 545.846 4320.315 C 546.029 4319.442 546.312 4318.639 546.683 4317.931 C 540.393 4316.816 533.266 4313.47 533.266 4301.299 C 533.266 4297.957 534.307 4295.004 536.364 4292.505 C 535.905 4290.974 535.382 4287.852 536.93 4283.918 L 537.151 4283.357 L 537.725 4283.175 C 538.253 4283.001 541.136 4282.383 547.065 4286.263 C 549.512 4285.636 552.102 4285.312 554.774 4285.299 C 557.459 4285.312 560.052 4285.636 562.504 4286.263 C 568.427 4282.381 571.305 4283.007 571.834 4283.175 L 572.406 4283.359 L 572.627 4283.917 C 574.182 4287.849 573.659 4290.973 573.2 4292.505 C 575.253 4294.996 576.294 4297.951 576.294 4301.299 C 576.294 4313.472 569.16 4316.808 562.855 4317.91 C 563.57 4319.261 563.957 4320.958 563.957 4322.832 C 563.957 4324.968 563.948 4331.975 563.938 4333.496 L 561.4 4333.478 C 561.41 4331.96 561.419 4324.964 561.419 4322.83 C 561.419 4319.731 560.222 4318.36 559.705 4317.913 L 557.509 4316.013 L 560.396 4315.692 C 567.002 4314.959 573.754 4312.673 573.754 4301.298 C 573.754 4298.341 572.768 4295.763 570.822 4293.637 L 570.277 4293.042 L 570.584 4292.297 C 570.794 4291.788 571.718 4289.197 570.529 4285.581 C 569.567 4285.638 567.27 4286.091 563.442 4288.687 L 562.954 4289.016 L 562.39 4288.86 C 560.025 4288.202 557.391 4287.849 554.773 4287.837 C 552.168 4287.849 549.539 4288.202 547.178 4288.86 L 546.613 4289.016 L 546.127 4288.687 C 542.295 4286.093 539.993 4285.636 539.027 4285.579 C 537.84 4289.197 538.765 4291.788 538.976 4292.297 L 539.283 4293.042 L 538.739 4293.637 C 536.789 4295.77 535.802 4298.348 535.802 4301.298 C 535.802 4312.668 542.541 4314.968 549.134 4315.718 L 551.992 4316.043 L 549.824 4317.934 C 549.352 4318.346 548.517 4319.345 548.233 4321.395 L 548.137 4322.092 L 547.495 4322.38 C 545.818 4323.131 540.084 4325.124 536.646 4319.226 C 536.627 4319.194 535.955 4318.026 534.739 4317.25 C 535.559 4318.061 536.558 4319.373 537.364 4321.422 C 537.448 4321.663 539.086 4326.019 546.604 4324.39 L 548.135 4324.058 L 548.15 4329.107 C 548.154 4330.994 548.158 4333.011 548.161 4333.478 L 545.626 4333.496 Z " fill="url(#_lgradient_1)"/><linearGradient id="_lgradient_2" x1="0.5" y1="-0.019230769230769232" x2="0.49999999999999983" y2="1.0224403846153847" gradientTransform="matrix(66,0,0,66,521.5,4270.025)" gradientUnits="userSpaceOnUse"><stop offset="0%" stop-opacity="1" style="stop-color:rgb(26,109,255)"/><stop offset="100%" stop-opacity="1" style="stop-color:rgb(200,34,255)"/></linearGradient><path d=" M 554.5 4336.025 C 536.303 4336.025 521.5 4321.222 521.5 4303.025 C 521.5 4284.828 536.303 4270.025 554.5 4270.025 C 572.697 4270.025 587.5 4284.828 587.5 4303.025 C 587.5 4321.222 572.697 4336.025 554.5 4336.025 Z  M 554.5 4272.564 C 537.704 4272.564 524.038 4286.23 524.038 4303.025 C 524.038 4319.821 537.704 4333.487 554.5 4333.487 C 571.296 4333.487 584.962 4319.821 584.962 4303.025 C 584.962 4286.23 571.296 4272.564 554.5 4272.564 Z " fill="url(#_lgradient_2)"/></g></svg>