<?xml version="1.0" standalone="no"?><!-- Generator: Gravit.io --><svg xmlns="http://www.w3.org/2000/svg" xmlns:xlink="http://www.w3.org/1999/xlink" style="isolation:isolate" viewBox="151.507 980.501 212.483 165.853" width="212.483" height="165.853"><g><path d=" M 271.938 1039.524 L 271.938 1062.264 C 271.938 1066.547 273.627 1070.528 276.523 1073.543 L 276.523 1081.264 C 276.523 1084.582 280.564 1098.938 283.882 1098.938 C 287.199 1098.938 288.466 1084.582 288.466 1081.264 L 288.466 1070.769 C 288.466 1068.778 287.44 1066.908 285.812 1065.823 C 284.605 1065.039 283.882 1063.712 283.882 1062.264 L 283.882 1039.524 C 283.882 1031.562 290.396 1025.047 298.358 1025.047 L 303.244 1025.047 C 311.206 1025.047 317.72 1031.562 317.72 1039.524 L 317.72 1062.264 C 317.72 1063.712 316.996 1065.039 315.79 1065.823 C 314.101 1066.908 313.136 1068.778 313.136 1070.769 L 313.136 1092.664 C 313.136 1095.318 314.704 1097.791 317.057 1098.938 C 319.892 1100.325 334.609 1107.744 348.241 1118.903 C 349.387 1119.868 350.051 1121.255 350.051 1122.824 L 350.051 1132.414 L 308.19 1132.414 C 304.872 1132.414 265.103 1135.068 265.103 1138.386 C 265.103 1141.703 304.872 1144.357 308.19 1144.357 L 332.106 1144.357 L 356.022 1144.357 C 359.34 1144.357 361.994 1141.703 361.994 1138.386 L 361.994 1122.824 C 361.994 1117.697 359.762 1112.931 355.781 1109.674 C 343.778 1099.842 330.93 1092.664 325.079 1089.588 L 325.079 1073.483 C 327.974 1070.467 329.663 1066.486 329.663 1062.204 L 329.663 1039.464 C 329.663 1024.866 317.78 1013.044 303.244 1013.044 L 298.358 1013.044 C 283.821 1013.104 271.938 1024.927 271.938 1039.524 Z " fill="rgb(255,255,255)" vector-effect="non-scaling-stroke" stroke-width="0.998" stroke="rgb(255,255,255)" stroke-linejoin="miter" stroke-linecap="butt" stroke-miterlimit="4"/><path d=" M 265.103 1041.711 L 265.103 1012.866 C 265.103 995.275 250.566 981 232.652 981 L 226.318 981 C 208.404 981 193.867 995.275 193.867 1012.866 L 193.867 1041.711 C 193.867 1046.923 196.039 1051.78 199.778 1055.334 L 199.778 1077.545 C 192.721 1081.099 175.47 1090.339 159.365 1103.37 C 154.66 1107.161 152.006 1112.728 152.006 1118.711 L 152.006 1138.494 C 152.006 1141.751 154.66 1144.357 157.978 1144.357 L 300.932 1144.357 C 304.25 1144.357 306.904 1141.751 306.904 1138.494 L 306.904 1118.711 C 306.904 1112.728 304.25 1107.161 299.545 1103.37 C 283.44 1090.398 266.189 1081.099 259.132 1077.545 L 259.132 1055.334 C 262.932 1051.839 265.103 1046.923 265.103 1041.711 Z  M 292.005 1112.432 C 293.935 1113.972 295.021 1116.282 295.021 1118.711 L 295.021 1132.63 L 164.009 1132.63 L 164.009 1118.711 C 164.009 1116.282 165.095 1113.972 167.025 1112.432 C 184.759 1098.098 204.001 1088.562 207.68 1086.785 C 210.153 1085.601 211.782 1083.054 211.782 1080.389 L 211.782 1052.55 C 211.782 1050.596 210.756 1048.76 209.128 1047.693 C 207.077 1046.331 205.87 1044.14 205.87 1041.77 L 205.87 1012.925 C 205.87 1001.79 215.099 992.787 226.379 992.787 L 232.712 992.787 C 244.052 992.787 253.22 1001.849 253.22 1012.925 L 253.22 1041.77 C 253.22 1044.14 252.014 1046.39 249.963 1047.693 C 248.274 1048.76 247.309 1050.596 247.309 1052.55 L 247.309 1080.389 C 247.309 1083.113 248.938 1085.601 251.411 1086.785 C 255.03 1088.562 274.272 1098.158 292.005 1112.432 Z " fill="rgb(255,255,255)" vector-effect="non-scaling-stroke" stroke-width="0.998" stroke="rgb(255,255,255)" stroke-linejoin="miter" stroke-linecap="butt" stroke-miterlimit="4"/></g></svg>