<?xml version="1.0" standalone="no"?><!-- Generator: Gravit.io --><svg xmlns="http://www.w3.org/2000/svg" xmlns:xlink="http://www.w3.org/1999/xlink" style="isolation:isolate" viewBox="594.667 1827.639 492.333 484.828" width="492.333" height="484.828"><path d=" M 771.162 1944.25 C 771.162 1906.543 801.776 1875.929 839.483 1875.929 C 877.191 1875.929 907.804 1906.543 907.804 1944.25 C 907.804 1981.957 877.191 2012.571 839.483 2012.571 C 801.776 2012.571 771.162 1981.957 771.162 1944.25 Z  M 771.162 2194.76 C 771.162 2157.053 801.776 2126.439 839.483 2126.439 C 877.191 2126.439 907.804 2157.053 907.804 2194.76 C 907.804 2232.467 877.191 2263.081 839.483 2263.081 C 801.776 2263.081 771.162 2232.467 771.162 2194.76 Z  M 896.417 2069.505 C 896.417 2031.798 927.031 2001.184 964.738 2001.184 C 1002.446 2001.184 1033.059 2031.798 1033.059 2069.505 C 1033.059 2107.212 1002.446 2137.826 964.738 2137.826 C 927.031 2137.826 896.417 2107.212 896.417 2069.505 Z  M 645.907 2069.505 C 645.907 2031.798 676.521 2001.184 714.228 2001.184 C 751.936 2001.184 782.549 2031.798 782.549 2069.505 C 782.549 2107.212 751.936 2137.826 714.228 2137.826 C 676.521 2137.826 645.907 2107.212 645.907 2069.505 Z  M 950.967 1963.399 C 910.865 1923.297 900.012 1869.034 926.747 1842.3 C 953.482 1815.565 1007.745 1826.418 1047.847 1866.52 C 1087.949 1906.622 1098.801 1960.885 1072.067 1987.619 C 1045.332 2014.354 991.069 2003.501 950.967 1963.399 Z  M 730.427 1963.865 C 770.529 1923.763 781.382 1869.5 754.647 1842.765 C 727.912 1816.031 673.649 1826.883 633.547 1866.985 C 593.445 1907.087 582.593 1961.35 609.327 1988.085 C 636.062 2014.82 690.325 2003.967 730.427 1963.865 Z  M 633.547 2273.586 C 593.445 2233.484 582.593 2179.222 609.327 2152.487 C 636.062 2125.752 690.325 2136.605 730.427 2176.707 C 770.529 2216.809 781.382 2271.072 754.647 2297.806 C 727.912 2324.541 673.649 2313.688 633.547 2273.586 Z  M 1048.119 2273.586 C 1088.221 2233.484 1099.074 2179.222 1072.339 2152.487 C 1045.605 2125.752 991.342 2136.605 951.24 2176.707 C 911.138 2216.809 900.285 2271.072 927.02 2297.806 C 953.754 2324.541 1008.017 2313.688 1048.119 2273.586 Z  M 839.483 2097.972" fill-rule="evenodd" fill="rgb(219,0,67)"/></svg>