<?xml version="1.0" standalone="no"?><!-- Generator: Gravit.io --><svg xmlns="http://www.w3.org/2000/svg" xmlns:xlink="http://www.w3.org/1999/xlink" style="isolation:isolate" viewBox="556.501 889.501 186.999 255.356" width="186.999" height="255.356"><path d=" M 742.761 955.492 C 742.648 948.625 742.539 942.137 742.539 935.861 C 742.539 930.944 739.071 926.958 734.791 926.958 C 701.655 926.958 676.427 916.016 655.397 892.521 C 652.389 889.159 647.602 889.16 644.594 892.521 C 623.567 916.016 598.343 926.958 565.209 926.958 C 560.93 926.958 557.461 930.944 557.461 935.861 C 557.461 942.139 557.353 948.628 557.239 955.497 C 556.177 1019.405 554.722 1106.93 647.458 1143.866 C 648.28 1144.193 649.138 1144.357 649.995 1144.357 C 650.853 1144.357 651.711 1144.193 652.533 1143.866 C 745.276 1106.929 743.823 1019.401 742.761 955.492 Z  M 649.996 1126.006 C 570.463 1092.807 571.666 1020.08 572.733 955.836 C 572.797 951.981 572.859 948.244 572.902 944.581 C 603.936 943.075 628.752 932.269 649.996 911.004 C 671.243 932.269 696.063 943.076 727.099 944.581 C 727.142 948.243 727.204 951.977 727.268 955.831 C 728.334 1020.077 729.536 1092.806 649.996 1126.006 Z " fill="rgb(255,255,255)" vector-effect="non-scaling-stroke" stroke-width="0.999" stroke="rgb(255,255,255)" stroke-linejoin="miter" stroke-linecap="butt" stroke-miterlimit="4"/></svg>