<?xml version="1.0" standalone="no"?><!-- Generator: Gravit.io --><svg xmlns="http://www.w3.org/2000/svg" xmlns:xlink="http://www.w3.org/1999/xlink" style="isolation:isolate" viewBox="617 4270.025 66 66" width="66" height="66"><g><linearGradient id="_lgradient_0" x1="0.5" y1="0" x2="0.49999999999999983" y2="0.9963500000000011" gradientTransform="matrix(2,0,0,2,-1,-1)" gradientUnits="userSpaceOnUse"><stop offset="0%" stop-opacity="1" style="stop-color:rgb(66,188,232)"/><stop offset="100%" stop-opacity="1" style="stop-color:rgb(35,167,220)"/></linearGradient><circle vector-effect="non-scaling-stroke" cx="0" cy="0" r="1" transform="matrix(33,0,0,33,650,4303.025)" fill="url(#_lgradient_0)"/><path d=" M 666.79 4287.864 L 660.492 4320.025 C 660.492 4320.025 659.611 4322.256 657.189 4321.185 L 642.654 4309.899 L 637.369 4307.312 L 628.472 4304.279 C 628.472 4304.279 627.106 4303.789 626.974 4302.718 C 626.842 4301.648 628.515 4301.068 628.515 4301.068 L 663.885 4287.017 C 663.883 4287.015 666.79 4285.722 666.79 4287.864 Z " fill="rgb(255,255,255)"/><path d=" M 641.536 4319.662 C 641.536 4319.662 641.111 4319.623 640.582 4317.927 C 640.054 4316.232 637.366 4307.31 637.366 4307.31 L 658.729 4293.571 C 658.729 4293.571 659.961 4292.812 659.918 4293.571 C 659.918 4293.571 660.138 4293.705 659.478 4294.33 C 658.818 4294.955 642.695 4309.63 642.695 4309.63" fill="rgb(210,229,241)"/><path d=" M 648.226 4314.226 L 642.478 4319.534 C 642.478 4319.534 642.029 4319.878 641.537 4319.662 L 642.638 4309.802" fill="rgb(181,207,228)"/></g></svg>