<?xml version="1.0" standalone="no"?><!-- Generator: Gravit.io --><svg xmlns="http://www.w3.org/2000/svg" xmlns:xlink="http://www.w3.org/1999/xlink" style="isolation:isolate" viewBox="953.5 970.357 218 186" width="218" height="186"><g><path d=" M 988.578 988.357 L 1048 988.357 L 1094.422 988.357 C 1103.847 988.357 1111.5 996.01 1111.5 1005.436 L 1111.5 1121.279 C 1111.5 1130.705 1103.847 1138.357 1094.422 1138.357 L 988.578 1138.357 C 979.153 1138.357 971.5 1130.705 971.5 1121.279 L 971.5 1005.436 C 971.5 996.01 979.153 988.357 988.578 988.357 Z " fill="none" vector-effect="non-scaling-stroke" stroke-width="12" stroke="rgb(255,255,255)" stroke-linejoin="miter" stroke-linecap="square" stroke-miterlimit="3"/><path d=" M 973 1012.357 L 1124.252 1012.357 C 1133.771 1012.357 1141.5 1020.086 1141.5 1029.605 L 1141.5 1121.109 C 1141.5 1130.629 1133.771 1138.357 1124.252 1138.357 L 988.748 1138.357 C 979.229 1138.357 971.5 1130.629 971.5 1121.109 L 971.5 1013.857 C 971.5 1013.029 972.172 1012.357 973 1012.357 Z " fill="rgb(45,53,70)" vector-effect="non-scaling-stroke" stroke-width="12" stroke="rgb(255,255,255)" stroke-linejoin="miter" stroke-linecap="square" stroke-miterlimit="3"/><path d=" M 1099.274 1056.357 L 1147.726 1056.357 C 1150.913 1056.357 1153.5 1058.944 1153.5 1062.131 L 1153.5 1090.584 C 1153.5 1093.77 1150.913 1096.357 1147.726 1096.357 L 1099.274 1096.357 C 1096.087 1096.357 1093.5 1093.77 1093.5 1090.584 L 1093.5 1062.131 C 1093.5 1058.944 1096.087 1056.357 1099.274 1056.357 Z " fill="rgb(45,53,70)" vector-effect="non-scaling-stroke" stroke-width="12" stroke="rgb(255,255,255)" stroke-linejoin="miter" stroke-linecap="square" stroke-miterlimit="3"/></g></svg>